<?xml version="1.0" encoding="utf-8"?>
<!-- Generator: Adobe Illustrator 16.0.0, SVG Export Plug-In . SVG Version: 6.00 Build 0)  -->
<!DOCTYPE svg PUBLIC "-//W3C//DTD SVG 1.0//EN" "http://www.w3.org/TR/2001/REC-SVG-20010904/DTD/svg10.dtd">
<svg version="1.0" xmlns="http://www.w3.org/2000/svg" xmlns:xlink="http://www.w3.org/1999/xlink" x="0px" y="0px"
	 width="179.318px" height="145.336px" viewBox="0 0 179.318 145.336" style="enable-background:new 0 0 179.318 145.336;"
	 xml:space="preserve">
<g id="Layer_3">
</g>
<g id="Layer_1">
</g>
<g id="Layer_4">
	<g style="display:none;">
		<rect x="35.303" y="36.363" style="display:inline;fill:#FFFFFF;stroke:#FF0000;stroke-miterlimit:10;" width="36" height="72"/>
		<rect x="71.303" y="36.363" style="display:inline;fill:#FFFFFF;stroke:#FF0000;stroke-miterlimit:10;" width="36" height="72"/>
		<rect x="106.303" y="36.363" style="display:inline;fill:#FFFFFF;stroke:#FF0000;stroke-miterlimit:10;" width="36" height="72"/>
		<rect x="142.303" y="36.363" style="display:inline;fill:#FFFFFF;stroke:#FF0000;stroke-miterlimit:10;" width="36" height="72"/>
		<rect x="-0.697" y="36.363" style="display:inline;fill:#FFFFFF;stroke:#FF0000;stroke-miterlimit:10;" width="36" height="72"/>
	</g>
	<rect x="-0.697" y="0.363" style="display:none;fill:none;stroke:#FF0000;stroke-miterlimit:10;" width="180" height="144"/>
	<g>
		<path d="M105.761,87.087V66.322c0-3.461,1.058-5.67,3.173-6.63c2.112-0.961,5.479-1.442,10.091-1.442h44.41v20.764
			c0,3.461-1.058,5.67-3.173,6.631c-2.112,0.96-5.479,1.442-10.091,1.442H105.761z"/>
	</g>
	<g>
		<path d="M85.748,88.241c0,4.612-0.482,7.979-1.442,10.091c-0.961,2.115-3.17,3.173-6.631,3.173H56.911v-44.41
			c0-4.612,0.481-7.979,1.442-10.091c0.961-2.115,3.17-3.173,6.63-3.173h20.765V88.241z"/>
	</g>
	<path d="M0,125.15V20.186C0,13.777,2.306,9.162,6.921,6.343c4.997-2.944,10.254-4.678,15.765-5.191C30.762,0.382,39.219,0,48.062,0
		l1.73,28.262c-0.385,0-5.704,0.45-15.958,1.345v86.123l15.958,1.346l-1.73,28.261c-16.794,0-27.942-0.961-33.452-2.885
		c-6.793-2.303-11.086-5.319-12.879-9.033C0.579,130.98,0,128.227,0,125.15z"/>
	<path d="M179.318,20.186V125.15c0,6.405-2.372,11.024-7.112,13.84c-4.872,2.947-10.063,4.682-15.573,5.194
		c-8.072,0.77-16.53,1.151-25.376,1.151l-1.73-28.261l15.958-1.346V29.606c-10.257-0.895-15.573-1.345-15.958-1.345L131.257,0
		c16.787,0,28.001,0.961,33.643,2.882c6.662,2.306,10.893,5.322,12.688,9.036C178.742,14.355,179.318,17.109,179.318,20.186z"/>
</g>
<g id="Layer_2" style="display:none;">
</g>
</svg>
