<?xml version="1.0" encoding="utf-8"?>
<!-- Generator: Adobe Illustrator 16.0.0, SVG Export Plug-In . SVG Version: 6.00 Build 0)  -->
<!DOCTYPE svg PUBLIC "-//W3C//DTD SVG 1.1//EN" "http://www.w3.org/Graphics/SVG/1.1/DTD/svg11.dtd">
<svg version="1.1" xmlns="http://www.w3.org/2000/svg" xmlns:xlink="http://www.w3.org/1999/xlink" x="0px" y="0px"
	 width="186.367px" height="147.593px" viewBox="0 0 186.367 147.593" enable-background="new 0 0 186.367 147.593"
	 xml:space="preserve">
<g id="Layer_4">
	<rect x="2.36" y="1.614" display="none" fill="none" stroke="#FF0000" stroke-miterlimit="10" width="180" height="144"/>
		<path d="M108.818,88.338V67.573c0-3.461,1.058-5.67,3.173-6.63c2.112-0.961,5.479-1.442,10.091-1.442h44.41v20.764
			c0,3.461-1.058,5.67-3.173,6.631c-2.112,0.96-5.479,1.442-10.091,1.442H108.818z"/>
		<path d="M88.806,89.492c0,4.612-0.482,7.979-1.442,10.091c-0.961,2.115-3.17,3.173-6.631,3.173H59.969v-44.41
			c0-4.612,0.481-7.979,1.442-10.091c0.961-2.115,3.17-3.173,6.63-3.173h20.765V89.492z"/>
		<path d="M3.058,126.401V21.437c0-6.408,2.306-11.023,6.921-13.843c4.997-2.944,10.254-4.678,15.765-5.191
			c8.076-0.77,16.533-1.151,25.376-1.151l1.73,28.262c-0.385,0-5.704,0.45-15.958,1.345v86.123l15.958,1.346l-1.73,28.261
			c-16.794,0-27.942-0.961-33.452-2.885c-6.793-2.303-11.086-5.319-12.879-9.033C3.637,132.231,3.058,129.478,3.058,126.401z"/>
		<path d="M182.376,21.437v104.965c0,6.405-2.372,11.024-7.112,13.84c-4.872,2.947-10.063,4.682-15.573,5.194
			c-8.072,0.77-16.53,1.151-25.376,1.151l-1.73-28.261l15.958-1.346V30.857c-10.257-0.895-15.573-1.345-15.958-1.345l1.73-28.262
			c16.787,0,28.001,0.961,33.643,2.882c6.662,2.306,10.893,5.322,12.688,9.036C181.8,15.606,182.376,18.36,182.376,21.437z"/>
</g>
</svg>
